<svg xmlns="http://www.w3.org/2000/svg" id="Layer_1" data-name="Layer 1" viewBox="0 0 14 14">
  <defs>
    <style>
      .cls-1 {
        fill: #89BC40; /* Updated color */
      }
    </style>
  </defs>
  <path class="cls-1" d="M7,4.63A2.37,2.37,0,1,0,9.37,7,2.37,2.37,0,0,0,7,4.63ZM7,8.54A1.54,1.54,0,1,1,8.54,7,1.54,1.54,0,0,1,7,8.54Z"/>
  <circle class="cls-1" cx="9.46" cy="4.54" r="0.55"/>
  <path class="cls-1" d="M11.94,0H2.06A2.06,2.06,0,0,0,0,2.06v9.88A2.06,2.06,0,0,0,2.06,14h9.88A2.06,2.06,0,0,0,14,11.94V2.06A2.06,2.06,0,0,0,11.94,0ZM10.75,8.86a1.73,1.73,0,0,1-1.89,1.89c-.48,0-.63,0-1.86,0s-1.38,0-1.86,0A1.72,1.72,0,0,1,3.25,8.86c0-.48,0-.63,0-1.86s0-1.38,0-1.86A1.73,1.73,0,0,1,5.14,3.25c.48,0,.63,0,1.86,0s1.38,0,1.86,0a1.73,1.73,0,0,1,1.89,1.89c0,.48,0,.63,0,1.86S10.78,8.38,10.75,8.86Z"/>
</svg>
